<!DOCTYPE svg PUBLIC "-//W3C//DTD SVG 1.1//EN" "http://www.w3.org/Graphics/SVG/1.1/DTD/svg11.dtd">
<!-- Uploaded to: SVG Repo, www.svgrepo.com, Transformed by: SVG Repo Mixer Tools -->
<svg fill="#ffffff" width="800px" height="800px" viewBox="0 0 24 24" xmlns="http://www.w3.org/2000/svg" stroke="#ffffff">
<g id="SVGRepo_bgCarrier" stroke-width="0"/>
<g id="SVGRepo_tracerCarrier" stroke-linecap="round" stroke-linejoin="round"/>
<g id="SVGRepo_iconCarrier">
<path d="M20.005 5.995h-1v2h1v8h-1v2h1c1.103 0 2-.897 2-2v-8c0-1.102-.898-2-2-2zm-14 4H15v4H6.005z"/>
<path d="M17.005 17.995V4H20V2h-8v2h3.005v1.995h-11c-1.103 0-2 .897-2 2v8c0 1.103.897 2 2 2h11V20H12v2h8v-2h-2.995v-2.005zm-13-2v-8h11v8h-11z"/>
</g>
</svg>